<svg width="100" height="100" viewBox="0 0 100 100" fill="none" xmlns="http://www.w3.org/2000/svg">
<path d="M80.3282 29.6475C79.4378 27.9903 77.8478 27 76.0749 27H62.7903C60.9645 27 59.2658 28.0647 58.3569 29.7791L46.6968 51.8432L41.5292 42.0662C40.4957 40.1085 38.6327 38.9379 36.5472 38.9379C34.4642 38.9379 32.6013 40.1085 31.5651 42.0662L19.6983 64.5167C18.7602 66.2912 18.7682 68.4092 19.7169 70.1751C20.6656 71.9439 22.3616 73 24.2537 73H37.1302C38.9216 73 40.5858 71.9553 41.4736 70.2753L46.6968 60.3952L51.6178 69.7028C52.6911 71.7378 54.7051 73 56.8702 73H56.8993C58.9584 73 60.8717 71.7979 61.892 69.866L80.3441 34.951C81.2239 33.2881 81.2186 31.3046 80.3282 29.6475Z" fill="#2D5CFF"/>
</svg>
