<svg width="425" height="856" viewBox="0 0 425 856" fill="none" xmlns="http://www.w3.org/2000/svg">
<rect x="14" y="11" width="397" height="834" rx="51" stroke="#AFAFAF" stroke-width="22"/>
<path d="M422 195H423.5C424.328 195 425 195.672 425 196.5V289.5C425 290.328 424.328 291 423.5 291H422V195Z" fill="#AFAFAF"/>
<path d="M3 176H1.5C0.671573 176 0 176.672 0 177.5V232.5C0 233.328 0.671573 234 1.5 234H3V176Z" fill="#AFAFAF"/>
<path d="M3 253H1.5C0.671573 253 0 253.672 0 254.5V309.5C0 310.328 0.671573 311 1.5 311H3V253Z" fill="#AFAFAF"/>
<path d="M3 115H1.5C0.671573 115 0 115.672 0 116.5V142.5C0 143.328 0.671573 144 1.5 144H3V115Z" fill="#AFAFAF"/>
<g clip-path="url(#clip0_31_5)">
<mask id="path-8-inside-1_31_5" fill="white">
<path fill-rule="evenodd" clip-rule="evenodd" d="M28.2698 38.3803C25 44.7976 25 53.1984 25 70V786.241C25 803.042 25 811.443 28.2698 817.86C31.146 823.505 35.7354 828.095 41.3803 830.971C47.7976 834.241 56.1984 834.241 73 834.241H352C368.802 834.241 377.202 834.241 383.62 830.971C389.265 828.095 393.854 823.505 396.73 817.86C400 811.443 400 803.042 400 786.241V70C400 53.1984 400 44.7976 396.73 38.3803C393.854 32.7354 389.265 28.146 383.62 25.2698C377.202 22 368.802 22 352 22H316.753C313.641 22 311.307 24.334 311.307 27.4461V22L311.307 35.6057C311.307 43.56 304.859 50.0083 296.904 50.0083H128.095C120.141 50.0083 113.693 43.56 113.693 35.6057V28.1948C113.673 25.0926 110.571 22 107.469 22H73C56.1984 22 47.7976 22 41.3803 25.2698C35.7354 28.146 31.146 32.7354 28.2698 38.3803Z"/>
</mask>
<path d="M28.2698 38.3803L27.8243 38.1533L28.2698 38.3803ZM28.2698 817.86L28.7153 817.633H28.7153L28.2698 817.86ZM41.3803 830.971L41.1533 831.416H41.1533L41.3803 830.971ZM383.62 830.971L383.847 831.416L383.62 830.971ZM396.73 817.86L396.285 817.633L396.73 817.86ZM396.73 38.3803L396.285 38.6073L396.73 38.3803ZM383.62 25.2698L383.847 24.8243L383.62 25.2698ZM311.307 22H311.807L310.807 22L311.307 22ZM311.307 35.6057L310.807 35.6057V35.6057H311.307ZM113.693 28.1948H114.193L114.193 28.1917L113.693 28.1948ZM41.3803 25.2698L41.1533 24.8243L41.3803 25.2698ZM25.5 70C25.5 61.591 25.5004 55.3143 25.9071 50.3368C26.3133 45.3651 27.1223 41.7337 28.7153 38.6073L27.8243 38.1533C26.1475 41.4442 25.3216 45.2219 24.9104 50.2553C24.4996 55.283 24.5 61.6075 24.5 70H25.5ZM25.5 786.241V70H24.5V786.241H25.5ZM28.7153 817.633C27.1223 814.507 26.3133 810.875 25.9071 805.904C25.5004 800.926 25.5 794.65 25.5 786.241H24.5C24.5 794.633 24.4996 800.958 24.9104 805.985C25.3216 811.019 26.1475 814.796 27.8243 818.087L28.7153 817.633ZM41.6073 830.525C36.0565 827.697 31.5436 823.184 28.7153 817.633L27.8243 818.087C30.7484 823.826 35.4143 828.492 41.1533 831.416L41.6073 830.525ZM73 833.741C64.591 833.741 58.3143 833.74 53.3368 833.334C48.3651 832.927 44.7337 832.118 41.6073 830.525L41.1533 831.416C44.4442 833.093 48.2219 833.919 53.2553 834.33C58.283 834.741 64.6075 834.741 73 834.741V833.741ZM352 833.741H73V834.741H352V833.741ZM383.393 830.525C380.266 832.118 376.635 832.927 371.663 833.334C366.686 833.74 360.409 833.741 352 833.741V834.741C360.393 834.741 366.717 834.741 371.745 834.33C376.778 833.919 380.556 833.093 383.847 831.416L383.393 830.525ZM396.285 817.633C393.456 823.184 388.944 827.697 383.393 830.525L383.847 831.416C389.586 828.492 394.252 823.826 397.176 818.087L396.285 817.633ZM399.5 786.241C399.5 794.65 399.5 800.926 399.093 805.904C398.687 810.875 397.878 814.507 396.285 817.633L397.176 818.087C398.853 814.796 399.678 811.019 400.09 805.985C400.5 800.958 400.5 794.633 400.5 786.241H399.5ZM399.5 70V786.241H400.5V70H399.5ZM396.285 38.6073C397.878 41.7337 398.687 45.3651 399.093 50.3368C399.5 55.3143 399.5 61.591 399.5 70H400.5C400.5 61.6075 400.5 55.283 400.09 50.2553C399.678 45.2219 398.853 41.4442 397.176 38.1533L396.285 38.6073ZM383.393 25.7153C388.944 28.5436 393.456 33.0565 396.285 38.6073L397.176 38.1533C394.252 32.4143 389.586 27.7484 383.847 24.8243L383.393 25.7153ZM352 22.5C360.409 22.5 366.686 22.5004 371.663 22.9071C376.635 23.3133 380.266 24.1223 383.393 25.7153L383.847 24.8243C380.556 23.1475 376.778 22.3216 371.745 21.9104C366.717 21.4996 360.393 21.5 352 21.5V22.5ZM316.753 22.5H352V21.5H316.753V22.5ZM311.807 27.4461C311.807 24.6102 313.917 22.5 316.753 22.5V21.5C313.365 21.5 310.807 24.0579 310.807 27.4461H311.807ZM310.807 22V27.4461H311.807V22H310.807ZM311.807 35.6057L311.807 22L310.807 22L310.807 35.6057L311.807 35.6057ZM296.904 50.5083C305.135 50.5083 311.807 43.8362 311.807 35.6057H310.807C310.807 43.2839 304.583 49.5083 296.904 49.5083V50.5083ZM128.095 50.5083H296.904V49.5083H128.095V50.5083ZM113.193 35.6057C113.193 43.8362 119.865 50.5083 128.095 50.5083V49.5083C120.417 49.5083 114.193 43.2839 114.193 35.6057H113.193ZM113.193 28.1948V35.6057H114.193V28.1948H113.193ZM107.469 22.5C108.858 22.5 110.289 23.1973 111.384 24.2884C112.48 25.3794 113.184 26.8083 113.193 28.1979L114.193 28.1917C114.182 26.4791 113.326 24.8106 112.09 23.5798C110.854 22.349 109.182 21.5 107.469 21.5V22.5ZM73 22.5H107.469V21.5H73V22.5ZM41.6073 25.7153C44.7337 24.1223 48.3651 23.3133 53.3368 22.9071C58.3143 22.5004 64.591 22.5 73 22.5V21.5C64.6075 21.5 58.283 21.4996 53.2553 21.9104C48.2219 22.3216 44.4442 23.1475 41.1533 24.8243L41.6073 25.7153ZM28.7153 38.6073C31.5436 33.0565 36.0565 28.5436 41.6073 25.7153L41.1533 24.8243C35.4143 27.7484 30.7484 32.4143 27.8243 38.1533L28.7153 38.6073Z" fill="#1E1E20" style="mix-blend-mode:overlay" mask="url(#path-8-inside-1_31_5)"/>
<path fill-rule="evenodd" clip-rule="evenodd" d="M107.469 22C110.575 22 113.682 25.1008 113.693 28.2072V35.6057C113.693 43.56 120.141 50.0083 128.095 50.0083H296.904C304.859 50.0083 311.307 43.56 311.307 35.6057V22H113.693H113.693H107.469ZM311.307 27.4461C311.307 24.334 313.641 22 316.753 22H311.307V27.4461Z" fill="#1E1E20"/>
<circle r="6" transform="matrix(-1 0 0 1 245 32)" fill="#333333"/>
<rect x="174" y="28" width="50" height="8" rx="4" fill="#333333"/>
</g>
<rect x="17" y="14" width="391" height="828" rx="48" stroke="#1E1E20" stroke-width="16"/>
<defs>
<clipPath id="clip0_31_5">
<rect x="25" y="22" width="375" height="812" rx="40" fill="white"/>
</clipPath>
</defs>
</svg>
